<svg xmlns="http://www.w3.org/2000/svg" version="1.1" viewBox="0 0 27 27 ">
<style type="text/css" >
     <![CDATA[
      rect.pixel {
          fill:   #ff0000;
      }
    ]]>
  </style>

   <rect width="27" height="27" fill="rgb(128, 128, 128)"/>
   <rect x="1" y="1" width="25.1" height="25.1" fill="rgb(255, 255, 255)"/>

  <rect class="pixel" x="1" y="1" width=".9" height=".9"/>
  <rect class="pixel" x="2" y="1" width=".9" height=".9"/>
  <rect class="pixel" x="3" y="1" width=".9" height=".9"/>
  <rect class="pixel" x="4" y="1" width=".9" height=".9"/>
  <rect class="pixel" x="5" y="1" width=".9" height=".9"/>
  <rect class="pixel" x="6" y="1" width=".9" height=".9"/>
  <rect class="pixel" x="7" y="1" width=".9" height=".9"/>
  <rect class="pixel" x="8" y="1" width=".9" height=".9"/>
  <rect class="pixel" x="9" y="1" width=".9" height=".9"/>
  <rect class="pixel" x="2" y="2" width=".9" height=".9"/>
  <rect class="pixel" x="1" y="2" width=".9" height=".9"/>
  <rect class="pixel" x="3" y="2" width=".9" height=".9"/>
  <rect class="pixel" x="4" y="2" width=".9" height=".9"/>
  <rect class="pixel" x="5" y="2" width=".9" height=".9"/>
  <rect class="pixel" x="6" y="2" width=".9" height=".9"/>
  <rect class="pixel" x="7" y="2" width=".9" height=".9"/>
  <rect class="pixel" x="8" y="2" width=".9" height=".9"/>
  <rect class="pixel" x="9" y="2" width=".9" height=".9"/>
  <rect class="pixel" x="3" y="3" width=".9" height=".9"/>
  <rect class="pixel" x="1" y="3" width=".9" height=".9"/>
  <rect class="pixel" x="2" y="3" width=".9" height=".9"/>
  <rect class="pixel" x="4" y="3" width=".9" height=".9"/>
  <rect class="pixel" x="5" y="3" width=".9" height=".9"/>
  <rect class="pixel" x="6" y="3" width=".9" height=".9"/>
  <rect class="pixel" x="7" y="3" width=".9" height=".9"/>
  <rect class="pixel" x="8" y="3" width=".9" height=".9"/>
  <rect class="pixel" x="9" y="3" width=".9" height=".9"/>
  <rect class="pixel" x="10" y="3" width=".9" height=".9"/>
  <rect class="pixel" x="11" y="3" width=".9" height=".9"/>
  <rect class="pixel" x="15" y="3" width=".9" height=".9"/>
  <rect class="pixel" x="16" y="3" width=".9" height=".9"/>
  <rect class="pixel" x="17" y="3" width=".9" height=".9"/>
  <rect class="pixel" x="22" y="3" width=".9" height=".9"/>
  <rect class="pixel" x="4" y="4" width=".9" height=".9"/>
  <rect class="pixel" x="1" y="4" width=".9" height=".9"/>
  <rect class="pixel" x="2" y="4" width=".9" height=".9"/>
  <rect class="pixel" x="3" y="4" width=".9" height=".9"/>
  <rect class="pixel" x="5" y="4" width=".9" height=".9"/>
  <rect class="pixel" x="6" y="4" width=".9" height=".9"/>
  <rect class="pixel" x="7" y="4" width=".9" height=".9"/>
  <rect class="pixel" x="8" y="4" width=".9" height=".9"/>
  <rect class="pixel" x="9" y="4" width=".9" height=".9"/>
  <rect class="pixel" x="13" y="4" width=".9" height=".9"/>
  <rect class="pixel" x="14" y="4" width=".9" height=".9"/>
  <rect class="pixel" x="18" y="4" width=".9" height=".9"/>
  <rect class="pixel" x="20" y="4" width=".9" height=".9"/>
  <rect class="pixel" x="21" y="4" width=".9" height=".9"/>
  <rect class="pixel" x="23" y="4" width=".9" height=".9"/>
  <rect class="pixel" x="5" y="5" width=".9" height=".9"/>
  <rect class="pixel" x="1" y="5" width=".9" height=".9"/>
  <rect class="pixel" x="2" y="5" width=".9" height=".9"/>
  <rect class="pixel" x="3" y="5" width=".9" height=".9"/>
  <rect class="pixel" x="4" y="5" width=".9" height=".9"/>
  <rect class="pixel" x="6" y="5" width=".9" height=".9"/>
  <rect class="pixel" x="7" y="5" width=".9" height=".9"/>
  <rect class="pixel" x="8" y="5" width=".9" height=".9"/>
  <rect class="pixel" x="9" y="5" width=".9" height=".9"/>
  <rect class="pixel" x="10" y="5" width=".9" height=".9"/>
  <rect class="pixel" x="11" y="5" width=".9" height=".9"/>
  <rect class="pixel" x="15" y="5" width=".9" height=".9"/>
  <rect class="pixel" x="16" y="5" width=".9" height=".9"/>
  <rect class="pixel" x="17" y="5" width=".9" height=".9"/>
  <rect class="pixel" x="22" y="5" width=".9" height=".9"/>
  <rect class="pixel" x="6" y="6" width=".9" height=".9"/>
  <rect class="pixel" x="1" y="6" width=".9" height=".9"/>
  <rect class="pixel" x="2" y="6" width=".9" height=".9"/>
  <rect class="pixel" x="3" y="6" width=".9" height=".9"/>
  <rect class="pixel" x="4" y="6" width=".9" height=".9"/>
  <rect class="pixel" x="5" y="6" width=".9" height=".9"/>
  <rect class="pixel" x="7" y="6" width=".9" height=".9"/>
  <rect class="pixel" x="8" y="6" width=".9" height=".9"/>
  <rect class="pixel" x="9" y="6" width=".9" height=".9"/>
  <rect class="pixel" x="13" y="6" width=".9" height=".9"/>
  <rect class="pixel" x="14" y="6" width=".9" height=".9"/>
  <rect class="pixel" x="18" y="6" width=".9" height=".9"/>
  <rect class="pixel" x="20" y="6" width=".9" height=".9"/>
  <rect class="pixel" x="21" y="6" width=".9" height=".9"/>
  <rect class="pixel" x="23" y="6" width=".9" height=".9"/>
  <rect class="pixel" x="7" y="7" width=".9" height=".9"/>
  <rect class="pixel" x="1" y="7" width=".9" height=".9"/>
  <rect class="pixel" x="2" y="7" width=".9" height=".9"/>
  <rect class="pixel" x="3" y="7" width=".9" height=".9"/>
  <rect class="pixel" x="4" y="7" width=".9" height=".9"/>
  <rect class="pixel" x="5" y="7" width=".9" height=".9"/>
  <rect class="pixel" x="6" y="7" width=".9" height=".9"/>
  <rect class="pixel" x="8" y="7" width=".9" height=".9"/>
  <rect class="pixel" x="9" y="7" width=".9" height=".9"/>
  <rect class="pixel" x="12" y="7" width=".9" height=".9"/>
  <rect class="pixel" x="16" y="7" width=".9" height=".9"/>
  <rect class="pixel" x="18" y="7" width=".9" height=".9"/>
  <rect class="pixel" x="19" y="7" width=".9" height=".9"/>
  <rect class="pixel" x="22" y="7" width=".9" height=".9"/>
  <rect class="pixel" x="23" y="7" width=".9" height=".9"/>
  <rect class="pixel" x="8" y="8" width=".9" height=".9"/>
  <rect class="pixel" x="1" y="8" width=".9" height=".9"/>
  <rect class="pixel" x="2" y="8" width=".9" height=".9"/>
  <rect class="pixel" x="3" y="8" width=".9" height=".9"/>
  <rect class="pixel" x="4" y="8" width=".9" height=".9"/>
  <rect class="pixel" x="5" y="8" width=".9" height=".9"/>
  <rect class="pixel" x="6" y="8" width=".9" height=".9"/>
  <rect class="pixel" x="7" y="8" width=".9" height=".9"/>
  <rect class="pixel" x="9" y="8" width=".9" height=".9"/>
  <rect class="pixel" x="10" y="8" width=".9" height=".9"/>
  <rect class="pixel" x="11" y="8" width=".9" height=".9"/>
  <rect class="pixel" x="12" y="8" width=".9" height=".9"/>
  <rect class="pixel" x="15" y="8" width=".9" height=".9"/>
  <rect class="pixel" x="16" y="8" width=".9" height=".9"/>
  <rect class="pixel" x="17" y="8" width=".9" height=".9"/>
  <rect class="pixel" x="18" y="8" width=".9" height=".9"/>
  <rect class="pixel" x="19" y="8" width=".9" height=".9"/>
  <rect class="pixel" x="22" y="8" width=".9" height=".9"/>
  <rect class="pixel" x="23" y="8" width=".9" height=".9"/>
  <rect class="pixel" x="9" y="9" width=".9" height=".9"/>
  <rect class="pixel" x="1" y="9" width=".9" height=".9"/>
  <rect class="pixel" x="2" y="9" width=".9" height=".9"/>
  <rect class="pixel" x="3" y="9" width=".9" height=".9"/>
  <rect class="pixel" x="4" y="9" width=".9" height=".9"/>
  <rect class="pixel" x="5" y="9" width=".9" height=".9"/>
  <rect class="pixel" x="6" y="9" width=".9" height=".9"/>
  <rect class="pixel" x="7" y="9" width=".9" height=".9"/>
  <rect class="pixel" x="8" y="9" width=".9" height=".9"/>
  <rect class="pixel" x="12" y="9" width=".9" height=".9"/>
  <rect class="pixel" x="13" y="9" width=".9" height=".9"/>
  <rect class="pixel" x="14" y="9" width=".9" height=".9"/>
  <rect class="pixel" x="16" y="9" width=".9" height=".9"/>
  <rect class="pixel" x="18" y="9" width=".9" height=".9"/>
  <rect class="pixel" x="19" y="9" width=".9" height=".9"/>
  <rect class="pixel" x="20" y="9" width=".9" height=".9"/>
  <rect class="pixel" x="21" y="9" width=".9" height=".9"/>
  <rect class="pixel" x="22" y="9" width=".9" height=".9"/>
  <rect class="pixel" x="23" y="9" width=".9" height=".9"/>
  <rect class="pixel" x="10" y="10" width=".9" height=".9"/>
  <rect class="pixel" x="3" y="10" width=".9" height=".9"/>
  <rect class="pixel" x="5" y="10" width=".9" height=".9"/>
  <rect class="pixel" x="8" y="10" width=".9" height=".9"/>
  <rect class="pixel" x="11" y="10" width=".9" height=".9"/>
  <rect class="pixel" x="15" y="10" width=".9" height=".9"/>
  <rect class="pixel" x="16" y="10" width=".9" height=".9"/>
  <rect class="pixel" x="17" y="10" width=".9" height=".9"/>
  <rect class="pixel" x="22" y="10" width=".9" height=".9"/>
  <rect class="pixel" x="11" y="11" width=".9" height=".9"/>
  <rect class="pixel" x="3" y="11" width=".9" height=".9"/>
  <rect class="pixel" x="5" y="11" width=".9" height=".9"/>
  <rect class="pixel" x="8" y="11" width=".9" height=".9"/>
  <rect class="pixel" x="10" y="11" width=".9" height=".9"/>
  <rect class="pixel" x="15" y="11" width=".9" height=".9"/>
  <rect class="pixel" x="16" y="11" width=".9" height=".9"/>
  <rect class="pixel" x="17" y="11" width=".9" height=".9"/>
  <rect class="pixel" x="22" y="11" width=".9" height=".9"/>
  <rect class="pixel" x="12" y="12" width=".9" height=".9"/>
  <rect class="pixel" x="7" y="12" width=".9" height=".9"/>
  <rect class="pixel" x="8" y="12" width=".9" height=".9"/>
  <rect class="pixel" x="9" y="12" width=".9" height=".9"/>
  <rect class="pixel" x="16" y="12" width=".9" height=".9"/>
  <rect class="pixel" x="18" y="12" width=".9" height=".9"/>
  <rect class="pixel" x="19" y="12" width=".9" height=".9"/>
  <rect class="pixel" x="22" y="12" width=".9" height=".9"/>
  <rect class="pixel" x="23" y="12" width=".9" height=".9"/>
  <rect class="pixel" x="13" y="13" width=".9" height=".9"/>
  <rect class="pixel" x="4" y="13" width=".9" height=".9"/>
  <rect class="pixel" x="6" y="13" width=".9" height=".9"/>
  <rect class="pixel" x="9" y="13" width=".9" height=".9"/>
  <rect class="pixel" x="14" y="13" width=".9" height=".9"/>
  <rect class="pixel" x="18" y="13" width=".9" height=".9"/>
  <rect class="pixel" x="20" y="13" width=".9" height=".9"/>
  <rect class="pixel" x="21" y="13" width=".9" height=".9"/>
  <rect class="pixel" x="23" y="13" width=".9" height=".9"/>
  <rect class="pixel" x="14" y="14" width=".9" height=".9"/>
  <rect class="pixel" x="4" y="14" width=".9" height=".9"/>
  <rect class="pixel" x="6" y="14" width=".9" height=".9"/>
  <rect class="pixel" x="9" y="14" width=".9" height=".9"/>
  <rect class="pixel" x="13" y="14" width=".9" height=".9"/>
  <rect class="pixel" x="18" y="14" width=".9" height=".9"/>
  <rect class="pixel" x="20" y="14" width=".9" height=".9"/>
  <rect class="pixel" x="21" y="14" width=".9" height=".9"/>
  <rect class="pixel" x="23" y="14" width=".9" height=".9"/>
  <rect class="pixel" x="15" y="15" width=".9" height=".9"/>
  <rect class="pixel" x="3" y="15" width=".9" height=".9"/>
  <rect class="pixel" x="5" y="15" width=".9" height=".9"/>
  <rect class="pixel" x="8" y="15" width=".9" height=".9"/>
  <rect class="pixel" x="10" y="15" width=".9" height=".9"/>
  <rect class="pixel" x="11" y="15" width=".9" height=".9"/>
  <rect class="pixel" x="16" y="15" width=".9" height=".9"/>
  <rect class="pixel" x="17" y="15" width=".9" height=".9"/>
  <rect class="pixel" x="19" y="15" width=".9" height=".9"/>
  <rect class="pixel" x="20" y="15" width=".9" height=".9"/>
  <rect class="pixel" x="21" y="15" width=".9" height=".9"/>
  <rect class="pixel" x="22" y="15" width=".9" height=".9"/>
  <rect class="pixel" x="23" y="15" width=".9" height=".9"/>
  <rect class="pixel" x="24" y="15" width=".9" height=".9"/>
  <rect class="pixel" x="25" y="15" width=".9" height=".9"/>
  <rect class="pixel" x="16" y="16" width=".9" height=".9"/>
  <rect class="pixel" x="3" y="16" width=".9" height=".9"/>
  <rect class="pixel" x="5" y="16" width=".9" height=".9"/>
  <rect class="pixel" x="7" y="16" width=".9" height=".9"/>
  <rect class="pixel" x="8" y="16" width=".9" height=".9"/>
  <rect class="pixel" x="9" y="16" width=".9" height=".9"/>
  <rect class="pixel" x="10" y="16" width=".9" height=".9"/>
  <rect class="pixel" x="11" y="16" width=".9" height=".9"/>
  <rect class="pixel" x="12" y="16" width=".9" height=".9"/>
  <rect class="pixel" x="15" y="16" width=".9" height=".9"/>
  <rect class="pixel" x="17" y="16" width=".9" height=".9"/>
  <rect class="pixel" x="18" y="16" width=".9" height=".9"/>
  <rect class="pixel" x="19" y="16" width=".9" height=".9"/>
  <rect class="pixel" x="22" y="16" width=".9" height=".9"/>
  <rect class="pixel" x="23" y="16" width=".9" height=".9"/>
  <rect class="pixel" x="17" y="17" width=".9" height=".9"/>
  <rect class="pixel" x="3" y="17" width=".9" height=".9"/>
  <rect class="pixel" x="5" y="17" width=".9" height=".9"/>
  <rect class="pixel" x="8" y="17" width=".9" height=".9"/>
  <rect class="pixel" x="10" y="17" width=".9" height=".9"/>
  <rect class="pixel" x="11" y="17" width=".9" height=".9"/>
  <rect class="pixel" x="15" y="17" width=".9" height=".9"/>
  <rect class="pixel" x="16" y="17" width=".9" height=".9"/>
  <rect class="pixel" x="19" y="17" width=".9" height=".9"/>
  <rect class="pixel" x="20" y="17" width=".9" height=".9"/>
  <rect class="pixel" x="21" y="17" width=".9" height=".9"/>
  <rect class="pixel" x="22" y="17" width=".9" height=".9"/>
  <rect class="pixel" x="23" y="17" width=".9" height=".9"/>
  <rect class="pixel" x="24" y="17" width=".9" height=".9"/>
  <rect class="pixel" x="25" y="17" width=".9" height=".9"/>
  <rect class="pixel" x="18" y="18" width=".9" height=".9"/>
  <rect class="pixel" x="4" y="18" width=".9" height=".9"/>
  <rect class="pixel" x="6" y="18" width=".9" height=".9"/>
  <rect class="pixel" x="7" y="18" width=".9" height=".9"/>
  <rect class="pixel" x="8" y="18" width=".9" height=".9"/>
  <rect class="pixel" x="9" y="18" width=".9" height=".9"/>
  <rect class="pixel" x="12" y="18" width=".9" height=".9"/>
  <rect class="pixel" x="13" y="18" width=".9" height=".9"/>
  <rect class="pixel" x="14" y="18" width=".9" height=".9"/>
  <rect class="pixel" x="16" y="18" width=".9" height=".9"/>
  <rect class="pixel" x="19" y="18" width=".9" height=".9"/>
  <rect class="pixel" x="20" y="18" width=".9" height=".9"/>
  <rect class="pixel" x="21" y="18" width=".9" height=".9"/>
  <rect class="pixel" x="22" y="18" width=".9" height=".9"/>
  <rect class="pixel" x="23" y="18" width=".9" height=".9"/>
  <rect class="pixel" x="19" y="19" width=".9" height=".9"/>
  <rect class="pixel" x="7" y="19" width=".9" height=".9"/>
  <rect class="pixel" x="8" y="19" width=".9" height=".9"/>
  <rect class="pixel" x="9" y="19" width=".9" height=".9"/>
  <rect class="pixel" x="12" y="19" width=".9" height=".9"/>
  <rect class="pixel" x="15" y="19" width=".9" height=".9"/>
  <rect class="pixel" x="16" y="19" width=".9" height=".9"/>
  <rect class="pixel" x="17" y="19" width=".9" height=".9"/>
  <rect class="pixel" x="18" y="19" width=".9" height=".9"/>
  <rect class="pixel" x="20" y="19" width=".9" height=".9"/>
  <rect class="pixel" x="21" y="19" width=".9" height=".9"/>
  <rect class="pixel" x="22" y="19" width=".9" height=".9"/>
  <rect class="pixel" x="23" y="19" width=".9" height=".9"/>
  <rect class="pixel" x="24" y="19" width=".9" height=".9"/>
  <rect class="pixel" x="25" y="19" width=".9" height=".9"/>
  <rect class="pixel" x="20" y="20" width=".9" height=".9"/>
  <rect class="pixel" x="4" y="20" width=".9" height=".9"/>
  <rect class="pixel" x="6" y="20" width=".9" height=".9"/>
  <rect class="pixel" x="9" y="20" width=".9" height=".9"/>
  <rect class="pixel" x="13" y="20" width=".9" height=".9"/>
  <rect class="pixel" x="14" y="20" width=".9" height=".9"/>
  <rect class="pixel" x="15" y="20" width=".9" height=".9"/>
  <rect class="pixel" x="17" y="20" width=".9" height=".9"/>
  <rect class="pixel" x="18" y="20" width=".9" height=".9"/>
  <rect class="pixel" x="19" y="20" width=".9" height=".9"/>
  <rect class="pixel" x="21" y="20" width=".9" height=".9"/>
  <rect class="pixel" x="22" y="20" width=".9" height=".9"/>
  <rect class="pixel" x="23" y="20" width=".9" height=".9"/>
  <rect class="pixel" x="24" y="20" width=".9" height=".9"/>
  <rect class="pixel" x="25" y="20" width=".9" height=".9"/>
  <rect class="pixel" x="21" y="21" width=".9" height=".9"/>
  <rect class="pixel" x="4" y="21" width=".9" height=".9"/>
  <rect class="pixel" x="6" y="21" width=".9" height=".9"/>
  <rect class="pixel" x="9" y="21" width=".9" height=".9"/>
  <rect class="pixel" x="13" y="21" width=".9" height=".9"/>
  <rect class="pixel" x="14" y="21" width=".9" height=".9"/>
  <rect class="pixel" x="15" y="21" width=".9" height=".9"/>
  <rect class="pixel" x="17" y="21" width=".9" height=".9"/>
  <rect class="pixel" x="18" y="21" width=".9" height=".9"/>
  <rect class="pixel" x="19" y="21" width=".9" height=".9"/>
  <rect class="pixel" x="20" y="21" width=".9" height=".9"/>
  <rect class="pixel" x="22" y="21" width=".9" height=".9"/>
  <rect class="pixel" x="23" y="21" width=".9" height=".9"/>
  <rect class="pixel" x="24" y="21" width=".9" height=".9"/>
  <rect class="pixel" x="25" y="21" width=".9" height=".9"/>
  <rect class="pixel" x="22" y="22" width=".9" height=".9"/>
  <rect class="pixel" x="3" y="22" width=".9" height=".9"/>
  <rect class="pixel" x="5" y="22" width=".9" height=".9"/>
  <rect class="pixel" x="7" y="22" width=".9" height=".9"/>
  <rect class="pixel" x="8" y="22" width=".9" height=".9"/>
  <rect class="pixel" x="9" y="22" width=".9" height=".9"/>
  <rect class="pixel" x="10" y="22" width=".9" height=".9"/>
  <rect class="pixel" x="11" y="22" width=".9" height=".9"/>
  <rect class="pixel" x="12" y="22" width=".9" height=".9"/>
  <rect class="pixel" x="15" y="22" width=".9" height=".9"/>
  <rect class="pixel" x="16" y="22" width=".9" height=".9"/>
  <rect class="pixel" x="17" y="22" width=".9" height=".9"/>
  <rect class="pixel" x="18" y="22" width=".9" height=".9"/>
  <rect class="pixel" x="19" y="22" width=".9" height=".9"/>
  <rect class="pixel" x="20" y="22" width=".9" height=".9"/>
  <rect class="pixel" x="21" y="22" width=".9" height=".9"/>
  <rect class="pixel" x="23" y="22" width=".9" height=".9"/>
  <rect class="pixel" x="24" y="22" width=".9" height=".9"/>
  <rect class="pixel" x="25" y="22" width=".9" height=".9"/>
  <rect class="pixel" x="23" y="23" width=".9" height=".9"/>
  <rect class="pixel" x="4" y="23" width=".9" height=".9"/>
  <rect class="pixel" x="6" y="23" width=".9" height=".9"/>
  <rect class="pixel" x="7" y="23" width=".9" height=".9"/>
  <rect class="pixel" x="8" y="23" width=".9" height=".9"/>
  <rect class="pixel" x="9" y="23" width=".9" height=".9"/>
  <rect class="pixel" x="12" y="23" width=".9" height=".9"/>
  <rect class="pixel" x="13" y="23" width=".9" height=".9"/>
  <rect class="pixel" x="14" y="23" width=".9" height=".9"/>
  <rect class="pixel" x="15" y="23" width=".9" height=".9"/>
  <rect class="pixel" x="16" y="23" width=".9" height=".9"/>
  <rect class="pixel" x="17" y="23" width=".9" height=".9"/>
  <rect class="pixel" x="18" y="23" width=".9" height=".9"/>
  <rect class="pixel" x="19" y="23" width=".9" height=".9"/>
  <rect class="pixel" x="20" y="23" width=".9" height=".9"/>
  <rect class="pixel" x="21" y="23" width=".9" height=".9"/>
  <rect class="pixel" x="22" y="23" width=".9" height=".9"/>
  <rect class="pixel" x="24" y="23" width=".9" height=".9"/>
  <rect class="pixel" x="25" y="23" width=".9" height=".9"/>
  <rect class="pixel" x="24" y="24" width=".9" height=".9"/>
  <rect class="pixel" x="15" y="24" width=".9" height=".9"/>
  <rect class="pixel" x="17" y="24" width=".9" height=".9"/>
  <rect class="pixel" x="19" y="24" width=".9" height=".9"/>
  <rect class="pixel" x="20" y="24" width=".9" height=".9"/>
  <rect class="pixel" x="21" y="24" width=".9" height=".9"/>
  <rect class="pixel" x="22" y="24" width=".9" height=".9"/>
  <rect class="pixel" x="23" y="24" width=".9" height=".9"/>
  <rect class="pixel" x="25" y="24" width=".9" height=".9"/>
  <rect class="pixel" x="25" y="25" width=".9" height=".9"/>
  <rect class="pixel" x="15" y="25" width=".9" height=".9"/>
  <rect class="pixel" x="17" y="25" width=".9" height=".9"/>
  <rect class="pixel" x="19" y="25" width=".9" height=".9"/>
  <rect class="pixel" x="20" y="25" width=".9" height=".9"/>
  <rect class="pixel" x="21" y="25" width=".9" height=".9"/>
  <rect class="pixel" x="22" y="25" width=".9" height=".9"/>
  <rect class="pixel" x="23" y="25" width=".9" height=".9"/>
  <rect class="pixel" x="24" y="25" width=".9" height=".9"/>
</svg>
